<?xml version="1.0" encoding="UTF-8"?><svg id="Capa_2" xmlns="http://www.w3.org/2000/svg" viewBox="0 0 1692.51 522.76"><defs><style>.cls-1{fill:#ff6900;}.cls-2{fill:#746661;}</style></defs><g id="Capa_4"><path class="cls-2" d="m753.68,202.28c-18.31-29.69-51.12-49.5-88.57-49.5h-25.37c-10.09,0-20.43,2.77-31,8.3-10.58,5.54-19.28,12.86-26.12,21.97v-26.36h-61.51v366.07h66.39v-134.47c6.83,7.16,15.05,12.86,24.65,17.08,9.59,4.23,18.95,6.34,28.07,6.34h24.88c37.45,0,70.26-19.8,88.57-49.5,9.77-15.85,15.42-42.06,15.42-62.04v-43.42c0-19.98-5.65-38.64-15.42-54.49Zm-40.38,96.03c0,30.9-25.28,56.18-56.18,56.18h-17.91c-31.28,0-56.64-25.36-56.64-56.64v-31.2c0-31.28,25.36-56.64,56.64-56.64h17.45c31.28,0,56.64,25.36,56.64,56.64v31.66Z"/><path class="cls-1" d="m1574.43,0c-93.18,0-120.13,26.17-120.13,116.69s27.91,117.4,119.44,117.4,118.76-26.33,118.76-117.4S1667.13,0,1574.43,0Zm-1.04,36.72c65.44,0,83.16,9.96,83.16,80.03,0,66.29-14.54,80.6-81.9,80.6s-84.41-11.12-84.41-80.6,18.73-80.03,83.15-80.03Z"/><path class="cls-2" d="m822.56,393.84c-13.51-12.2-20.26-31.16-20.26-56.87V70.45h66.39v262.61c0,7.81,1.79,13.51,5.37,17.08,3.58,3.58,9.27,5.37,17.08,5.37h26.36v56.62h-31.24c-28.97,0-50.2-6.1-63.7-18.3Z"/><path class="cls-2" d="m962.39,389.93c-15.62-17.41-23.43-40.27-23.43-68.58v-168.56h66.38v169.54c1.09,11.18,2.25,26.95,21.42,34.97,14.45,6.05,31.12,5.89,46.2,1.64,7.76-2.19,15.51-7.79,19.27-11.55,14.67-14.67,17.42-36.93,18.55-50.34v-144.26h66.38v259.36h-61.5v-31.24c-7.49,10.42-16.68,18.88-27.58,25.38-3.27,1.95-8.36,3.61-13.89,4.98-20.44,5.06-41.8,5.25-62.42.98-19.85-4.11-39.73-11.54-49.39-22.31Z"/><path class="cls-2" d="m1267.22,326.49h-61.5s-1.7,61.75,51.21,79.61c45.29,15.29,109.54,7.66,127.58,3.73,18.33-3.99,32.95-13.44,42.81-29.86,4.42-7.35,8.03-16.53,9.83-27.95,7.18-45.67-20.99-71.44-20.99-71.44,0,0-12.8-15.45-48.23-21.07l-76.46-13.73c-3.46-.62-6.82-1.88-9.68-3.97-4.55-3.34-9.4-9.56-8.21-20.66,1.57-14.74,10.73-17,24.49-18.93,6.75-.95,36-1.69,47.85-.58,20.13,1.89,27.79,12.54,30.67,27.53.3,1.56.55,3.21.74,4.95l61.5.04s1.7-61.75-51.21-79.61c-45.29-15.29-109.54-7.66-127.58-3.73-18.33,3.99-32.95,13.44-42.81,29.86-4.42,7.35-8.03,16.53-9.83,27.95-7.18,45.67,20.99,71.44,20.99,71.44,0,0,12.8,15.45,48.23,21.07l76.46,13.73c3.46.62,6.82,1.88,9.68,3.97,4.55,3.34,9.55,9.57,8.21,20.66-1.94,16.13-18.02,17.76-24.58,18.72-14.55,2.12-36.06,1.54-48.52.19-19.48-2.12-27.03-11.93-29.91-26.93-.3-1.56-.55-3.21-.74-4.95v-.04Z"/><polygon class="cls-1" points="1633.81 100.45 1590.01 100.45 1590.01 58.82 1556.82 58.82 1556.82 100.45 1513.01 100.45 1513.01 133.64 1556.82 133.64 1556.82 175.27 1590.01 175.27 1590.01 133.64 1633.81 133.64 1633.81 100.45"/><path class="cls-1" d="m229.58,332.58l28.64,79.56h70.29L204.44,96.37l-9.64-25.92h-61.05L0,412.14h70.29l94.21-259.2h.49l44.25,123.01h-56.32l-20.62,56.62h97.28Z"/><line class="cls-1" x1="99.21" y1="332.58" x2="99.2" y2="332.58"/><path class="cls-2" d="m479.93,354.5h-8.72c-31.28,0-56.64-25.36-56.64-56.64v-31.2c0-31.28,25.36-56.64,56.64-56.64h16.57v-57.23h-16.04c-10.09,0-20.43,2.77-31,8.3-10.58,5.54-19.28,12.86-26.12,21.97v-26.36h-61.51v366.07h66.39v-134.47c6.83,7.16,15.05,12.86,24.65,17.08,9.59,4.23,18.95,6.34,28.07,6.34h15.55v-57.23h-7.85Z"/></g></svg>