<svg xmlns="http://www.w3.org/2000/svg" xmlns:xlink="http://www.w3.org/1999/xlink" id="Capa_1" x="0px" y="0px" viewBox="0 0 566.8 150.6" style="enable-background:new 0 0 566.8 150.6;" xml:space="preserve"><style type="text/css">	.st0{fill:#184287;}	.st1{fill:#47AC34;}	.st2{fill-rule:evenodd;clip-rule:evenodd;fill:#184287;}	.st3{fill-rule:evenodd;clip-rule:evenodd;fill:#47AC34;}</style><polygon class="st0" points="252.5,134.9 247.3,122.2 244.2,137.5 245.5,137.5 247.7,126.6 252.5,138.4 257.2,126.6 259.4,137.3  259.4,137.5 260.8,137.5 257.6,122.2 "></polygon><polygon class="st0" points="272.4,119.1 270.8,118.6 268.7,121.6 269.8,122.2 "></polygon><path class="st0" d="M264.4,137.5h1.5l1.9-4.5h5.7l1.9,4.5h1.5l-6.1-15.2L264.4,137.5L264.4,137.5z M272.9,131.6h-4.6l2.3-5.8 L272.9,131.6z"></path><path class="st0" d="M288.1,130.5l-2.6-1.4c-0.8-0.3-1.4-0.7-1.8-1c-0.3-0.3-0.5-0.7-0.5-1.3s0.1-0.8,0.3-1.2 c0.2-0.3,0.5-0.6,0.9-0.9c0.3-0.2,0.8-0.3,1.2-0.3c1.1,0,1.9,0.5,2.6,1.5l0.2,0.2l1-0.8l-0.1-0.2c-0.3-0.6-0.9-1.2-1.5-1.5 c-1.3-0.7-2.8-0.7-4-0.1c-0.6,0.3-1,0.8-1.3,1.3c-0.3,0.6-0.5,1.2-0.5,1.9c0,1.2,0.5,2,1.6,2.7l2.5,1.3c0.6,0.3,1.1,0.5,1.5,0.8 c0.3,0.2,0.6,0.5,0.9,0.8c0.2,0.3,0.3,0.6,0.3,1c0,0.4-0.1,1-0.4,1.5c-0.3,0.5-0.7,0.8-1.2,1.1s-1,0.4-1.6,0.4s-1.3-0.2-1.9-0.6 c-0.5-0.4-0.9-1-1.2-1.7l-0.1-0.2l-1.2,0.5v0.2c0.4,0.9,1,1.7,1.7,2.3c0.8,0.6,1.6,0.9,2.6,0.9s1.5-0.2,2.2-0.6 c0.7-0.3,1.3-0.9,1.7-1.5c0.4-0.6,0.6-1.4,0.6-2.1C289.8,132.2,289.2,131.2,288.1,130.5L288.1,130.5z"></path><path class="st0" d="M319.2,130.3c0-1.3-0.3-2.5-1-3.7c-0.6-1.1-1.6-2-2.7-2.7c-1.1-0.6-2.4-1-3.7-1c-1.3,0-2,0.2-2.8,0.6 c-0.9,0.3-1.7,0.9-2.4,1.6s-1.2,1.5-1.6,2.3c-0.4,0.9-0.6,1.9-0.6,2.8c0,1,0.3,2.6,1,3.7c0.6,1.1,1.6,2,2.7,2.7s2.4,1,3.7,1 s1.1-0.1,1.6-0.2c0.5-0.1,1.1-0.3,1.6-0.6c0.4-0.2,0.9-0.5,1.2-0.8l1.2,1.4h1.9l-2-2.2C318.5,133.7,319.2,132,319.2,130.3 L319.2,130.3z M317.9,130.5c0,1.3-0.5,2.6-1.5,3.8l-2.7-2.9h-1.9l3.7,3.8c-1.1,0.8-2.3,1.2-3.5,1.2c-1.2,0-2.1-0.3-3-0.8 s-1.7-1.3-2.2-2.2c-0.5-0.9-0.8-1.9-0.8-3s0.3-2,0.8-3c0.5-0.9,1.3-1.7,2.2-2.2c0.9-0.5,1.9-0.8,3-0.8c1.1,0,2.1,0.3,3,0.8 s1.6,1.3,2.1,2.2c0.5,0.9,0.8,2,0.8,3L317.9,130.5z"></path><path class="st0" d="M333.3,131.8c0,0.8,0,1.5-0.1,2c-0.1,0.5-0.2,0.9-0.5,1.3c-0.3,0.4-0.7,0.7-1.3,0.9c-1.1,0.5-2.1,0.5-3.3,0 c-0.5-0.2-1-0.5-1.3-0.9c-0.3-0.4-0.5-0.8-0.5-1.3c-0.1-0.5-0.1-1.2-0.1-2v-8.6h-1.4v8.8c0,0.9,0,1.7,0.2,2.2 c0.1,0.6,0.4,1.2,0.8,1.7c0.5,0.5,1.1,1,1.8,1.3c0.7,0.3,1.4,0.4,2.1,0.4s1.5-0.2,2.1-0.4c0.7-0.3,1.3-0.7,1.8-1.3 c0.5-0.5,0.7-1.1,0.8-1.7c0.1-0.6,0.2-1.3,0.2-2.2v-8.8h-1.4v8.6V131.8z"></path><polygon class="st0" points="341,137.5 348,137.5 348,136.2 342.3,136.2 342.3,130.3 347.9,130.3 347.9,129 342.3,129 342.3,124.5  348,124.5 348,123.2 341,123.2 "></polygon><rect x="363.9" y="123.2" class="st0" width="1.4" height="14.3"></rect><polygon class="st0" points="383.3,134.9 371.8,122.7 371.8,137.5 373.2,137.5 373.2,126 384.7,138.3 384.7,123.2 383.3,123.2 "></polygon><path class="st0" d="M398.3,131.7h4.9c0,0.4-0.1,0.8-0.2,1.1c-0.1,0.4-0.3,0.8-0.5,1.1c-0.2,0.3-0.5,0.7-0.9,1 c-1.2,1-2.5,1.5-3.9,1.5c-1.4,0-2.1-0.3-3-0.8s-1.6-1.3-2.2-2.2c-0.5-0.9-0.8-1.9-0.8-3c0-1,0.3-2,0.8-3c0.5-0.9,1.3-1.7,2.2-2.2 c0.9-0.6,1.9-0.8,3-0.8c1,0,1,0.1,1.5,0.2c0.5,0.1,0.9,0.3,1.4,0.6c0.4,0.2,0.8,0.5,1.2,0.9c0.3,0.3,0.7,0.8,1,1.2l0.2,0.2l1.1-0.9 l-0.1-0.2c-0.5-0.7-1-1.3-1.7-1.7c-0.6-0.5-1.3-0.9-2.1-1.2c-0.8-0.3-1.6-0.4-2.4-0.4c-1.3,0-2.6,0.3-3.7,1c-1.2,0.6-2,1.6-2.7,2.7 c-0.6,1.1-1,2.4-1,3.7s0.2,1.9,0.6,2.8c0.4,0.9,0.9,1.7,1.6,2.3c0.7,0.7,1.5,1.2,2.3,1.6c0.9,0.4,1.8,0.6,2.8,0.6s2-0.2,3-0.6 c0.9-0.4,1.8-1,2.4-1.7c0.4-0.5,0.7-0.9,0.9-1.4c0.2-0.5,0.3-1,0.5-1.6c0.1-0.5,0.1-1.1,0.1-1.7v-0.2h-6.3v1.3L398.3,131.7z"></path><polygon class="st0" points="410.3,137.5 417.3,137.5 417.3,136.2 411.6,136.2 411.6,130.3 417.2,130.3 417.2,129 411.6,129  411.6,124.5 417.3,124.5 417.3,123.2 410.3,123.2 "></polygon><polygon class="st0" points="435.1,134.9 423.5,122.7 423.5,137.5 424.9,137.5 424.9,126 436.5,138.3 436.5,123.2 435.1,123.2 "></polygon><rect x="443" y="123.2" class="st0" width="1.4" height="14.3"></rect><polygon class="st0" points="450.8,137.5 457.9,137.5 457.9,136.2 452.2,136.2 452.2,130.3 457.8,130.3 457.8,129 452.2,129  452.2,124.5 457.9,124.5 457.9,123.2 450.8,123.2 "></polygon><path class="st0" d="M468.8,130.5c0.6-0.3,1.2-0.8,1.5-1.3s0.5-1.3,0.5-2.1c0-1.4-0.5-2.4-1.5-3.1c-0.5-0.3-0.9-0.5-1.5-0.6 c-0.5-0.1-1.1-0.1-1.9-0.1h-2v14.3h1.4V131h0.1l4.5,6.5h1.6l-4.5-6.6C467.7,130.9,468.2,130.8,468.8,130.5L468.8,130.5z  M465.5,124.5h0.3c1.1,0,1.9,0.1,2.4,0.3c0.3,0.1,0.5,0.3,0.7,0.5c0.2,0.2,0.3,0.5,0.5,0.8c0.1,0.3,0.2,0.6,0.2,0.9 c0,0.9-0.3,1.5-0.9,2c-0.3,0.2-0.6,0.4-0.9,0.5c-0.3,0.1-0.8,0.1-1.3,0.1h-0.9V124.5L465.5,124.5z"></path><polygon class="st0" points="475.9,121.6 477,122.2 479.7,119.1 478,118.6 "></polygon><rect x="477" y="123.2" class="st0" width="1.4" height="14.3"></rect><path class="st0" d="M489.5,122.3l-6,14.8l-0.1,0.3h1.5l1.9-4.5h5.7l1.9,4.5h1.5l-6.1-15.2H489.5z M489.5,125.9l2.3,5.8h-4.6 L489.5,125.9z"></path><path class="st1" d="M189.9,71.7c3.4-2.8,7.4-4.2,12.3-4.2s6.2,0.6,8.9,2c2.8,1.3,4.9,3.1,6.4,5.3l10.8-3.9c-2.3-4-5.9-7.1-10.6-9.5 c-4.8-2.4-9.9-3.6-15.5-3.6s-7.7,0.6-11.2,1.9c-3.5,1.3-6.6,3-9.2,5.2c-2.6,2.1-4.6,4.8-6.2,7.7c-1.6,3-2.4,6.1-2.4,9.5 c-0.1,4.4,1.1,8.4,3.7,12.1c2.6,3.8,6.2,6.7,10.7,8.8c4.5,2.1,9.4,3.3,14.7,3.3c5.3,0,10.7-1.2,15.3-3.7s8.1-5.8,10.6-9.9l-11-3.4 c-1.6,2.2-3.7,4-6.3,5.3c-2.6,1.3-5.5,2-8.6,2c-4.9,0-9-1.5-12.4-4.3c-3.4-2.8-5.1-6.3-5-10.2c0.1-4,1.9-7.4,5.2-10.3H189.9z"></path><path class="st1" d="M262.3,73.5c-3.3-1.6-6.8-2.3-10.6-2.3s-5.5,0.5-8.1,1.4c-2.6,0.9-4.8,2.1-6.6,3.7s-3.4,3.4-4.5,5.6 c-1.1,2.1-1.7,4.5-1.8,6.9c-0.1,3.2,0.9,6.2,2.7,8.9c1.9,2.7,4.5,4.8,7.7,6.4s6.8,2.3,10.5,2.3c3.7,0,5.6-0.5,8.1-1.4 c2.6-0.9,4.8-2.1,6.6-3.7c1.9-1.6,3.4-3.4,4.5-5.6c1.1-2.1,1.7-4.5,1.8-6.9c0.1-3.2-0.9-6.2-2.7-8.9C268.1,77.1,265.5,75,262.3,73.5 L262.3,73.5z M263.6,88.8c-0.1,2.7-1.2,5-3.5,6.9c-2.3,1.9-5.1,2.9-8.4,2.9c-3.3,0-6.1-1-8.4-2.9s-3.4-4.2-3.4-6.9s1.2-5,3.5-6.9 c2.3-1.9,5.1-2.9,8.3-2.9c3.3,0,6.2,1,8.5,2.9S263.6,86.1,263.6,88.8z"></path><path class="st1" d="M310.7,80.6c-1.7-2.9-4-5.2-6.9-6.9s-6.1-2.6-9.5-2.6s-6.7,0.9-9.6,2.6s-5.2,4-6.9,6.9s-2.6,6.1-2.6,9.5v15.3 h9.2V88.8c0-2.7,0.9-5,2.8-6.9c1.9-1.9,4.2-2.8,6.9-2.8c2.7,0,5,0.9,6.9,2.8c1.9,1.9,2.8,4.2,2.8,6.9v16.6h9.4V90.1 C313.3,86.7,312.4,83.5,310.7,80.6L310.7,80.6L310.7,80.6z"></path><path class="st1" d="M341.9,71.2c-5.8,0-10.3,1.7-13.4,5.1c-3.2,3.4-4.2,7.6-3.1,12.5c0.6,2.7,0.1,4.9-1.7,6.9 c-1.7,1.9-4.3,2.8-7.5,2.8h-0.6l2,7.8h0.3c3.8,0,7.1-0.8,9.9-2.3c2.8-1.6,4.8-3.7,6-6.4c1.2-2.7,1.4-5.7,0.6-8.9 c-0.6-2.7-0.1-4.9,1.7-6.8s4.3-2.8,7.5-2.8h0.6l-2-7.8L341.9,71.2L341.9,71.2z"></path><path class="st1" d="M365.7,98.6c-2,0.4-3.5,0.2-4.5-0.5c-1-0.8-1.5-2.3-1.5-4.4V78.3h7.1v-6.1h-7.1V61.9h-9.2v10.3h-3.8v6.1h3.8 v16.2c0,3.2,1,6,3,8.3c2,2.4,4.8,3.5,8.2,3.5s4.1-0.4,6.1-1.2l0.4-0.2l-2.3-6.4L365.7,98.6L365.7,98.6z"></path><path class="st1" d="M385,72.7c-1.9,0.9-3.7,2-5.1,3.4v-4h-9.2v33.3h9.2V88.9c0-1.9,0.3-3.5,1-4.8c0.6-1.2,1.6-2.1,2.6-2.7 c1.2-0.5,2.5-0.9,4-1c1.5-0.2,3.1,0,4.7,0.3l0.6,0.1v-9.8h-0.5c-2.6,0-5.1,0.5-7.4,1.5L385,72.7z"></path><path class="st1" d="M424,88.7c0,2.7-0.9,5-2.8,6.9c-1.9,1.9-4.2,2.8-6.9,2.8c-2.7,0-5-0.9-6.9-2.8c-1.9-1.9-2.8-4.2-2.8-6.9V71.2 h-9.2v16.1c0,3.4,0.9,6.6,2.6,9.5s4,5.2,6.9,6.9s6.1,2.6,9.6,2.6s6.6-0.9,9.5-2.6l0,0c2.9-1.7,5.2-4,6.9-6.9s2.6-6.1,2.6-9.5V71.2 h-9.4L424,88.7L424,88.7z"></path><path class="st0" d="M468.2,90.1h11c-1.6,2-3.7,3.6-6.2,4.8s-5.2,1.7-8.1,1.7c-4.8,0-8.9-1.5-12.4-4.3c-3.4-2.8-5.1-6.3-5.1-10.3 c0.1-4,1.9-7.4,5.2-10.3c3.4-2.8,7.4-4.2,12.3-4.2c4.8,0,6.2,0.7,9,2c2.8,1.3,4.9,3.1,6.4,5.3l10.8-3.9c-2.3-4-5.9-7.1-10.6-9.5 c-4.8-2.4-9.9-3.6-15.5-3.6c-5.6,0-7.7,0.6-11.2,1.9c-3.5,1.3-6.6,3-9.2,5.2c-2.6,2.1-4.6,4.8-6.2,7.7c-1.6,3-2.4,6.1-2.4,9.5 c-0.1,4.4,1.1,8.5,3.7,12.2c2.6,3.7,6.2,6.7,10.7,8.8c4.5,2.1,9.4,3.3,14.7,3.3s12.3-1.8,16.8-5.5v4.1h9.8V82.9h-23.2v7.3 L468.2,90.1z"></path><path class="st0" d="M525.4,73.5c-3.2-1.6-6.7-2.4-10.5-2.4c-3.8,0-7.3,0.8-10.6,2.3c-3.3,1.6-5.8,3.7-7.7,6.4 c-1.9,2.7-2.8,5.7-2.7,8.9c0.1,4.9,2.2,9.1,6.1,12.5s8.9,5.1,14.9,5.1c6,0,4.6-0.4,6.9-1.2c1.9-0.6,3.5-1.5,5-2.4v2.7h9.2V88.6 c0-3.2-1-6.2-2.8-8.9c-1.9-2.7-4.5-4.8-7.7-6.4L525.4,73.5z M506.4,81.9c2.3-1.9,5.2-2.9,8.5-2.9c3.3,0,6.1,1,8.4,2.9 c2.3,1.9,3.4,4.2,3.5,6.9c0.1,2.7-1,4.9-3.4,6.9c-2.3,1.9-5.2,2.9-8.5,2.9c-3.3,0-6-1-8.3-2.9c-2.3-1.9-3.4-4.2-3.5-6.9 C503,86.1,504.1,83.8,506.4,81.9L506.4,81.9z"></path><path class="st0" d="M564.8,71.2h-0.3c-5.8,0-10.3,1.7-13.4,5.1c-3.2,3.4-4.2,7.6-3.1,12.5c0.6,2.7,0.1,4.9-1.7,6.9 c-1.7,1.9-4.3,2.8-7.5,2.8h-0.6l2,7.8h0.3c3.8,0,7.1-0.8,9.9-2.3c2.8-1.6,4.8-3.7,6-6.4c1.2-2.7,1.4-5.7,0.6-8.9 c-0.6-2.7-0.1-4.9,1.7-6.8c1.7-1.9,4.3-2.8,7.5-2.8h0.6L564.8,71.2L564.8,71.2z"></path><path class="st2" d="M135.5,29l10,17.2l-13,8.5c1.2,3.1,2,6.4,2.6,9.6l15.5,0.9v19.9l-15.5,0.9c-0.6,3.3-1.4,6.5-2.6,9.6l13,8.5 l-10,17.2l-13.9-7c-1.1,1.3-2.2,2.5-3.4,3.7c-1.2,1.2-2.4,2.3-3.7,3.4l7,13.9l-17.2,10l-8.5-13c-3.1,1.2-6.4,2-9.6,2.6l-0.9,15.5 H65.4L64.5,135c-3.3-0.6-6.5-1.4-9.6-2.6l-8.5,13l-17.2-10L54,110.5c15.9,9.6,36.7,7.6,50.4-6.2c10.4-10.4,14.1-25.1,11-38.4 L65.9,98.5L135.5,29L135.5,29L135.5,29z"></path><path class="st3" d="M15.1,121.5l-10-17.2l13-8.5c-1.2-3.1-2-6.4-2.6-9.6L0,85.2V65.3l15.5-0.9c0.6-3.3,1.4-6.5,2.6-9.6l-13-8.5 l10-17.2L29,36c1.1-1.3,2.2-2.5,3.4-3.7c1.2-1.2,2.4-2.3,3.7-3.4l-7-13.9l17.2-10l8.5,13c3.1-1.2,6.4-2,9.6-2.6L65.3,0h19.9 l0.9,15.5c3.3,0.6,6.5,1.4,9.6,2.6l8.5-13l17.2,10L96.6,40c-15.9-9.6-36.7-7.6-50.4,6.2c-10.4,10.4-14.1,25.1-11,38.4L84.7,52 L15.1,121.5L15.1,121.5L15.1,121.5z"></path></svg>