<svg viewBox="0 0 94 37" xmlns="http://www.w3.org/2000/svg"><g fill-rule="evenodd"><path d="m4.34 17.41a3 3 0 0 0 1.5.9 60.74 60.74 0 0 0 8.25 1.69 23.71 23.71 0 0 1 5.73 1.49c2.05.95 3.7 2.33 4.05 4.71.59 4-.79 7.68-4.87 9.33a16.94 16.94 0 0 1 -14.75-.53c-2.72-1.43-4-4-4.24-7 0-.39.1-.45.41-.45h6c.34 0 .44.12.47.45a4 4 0 0 0 2.84 3.6 7.25 7.25 0 0 0 4.69.07 3.83 3.83 0 0 0 1.61-1 2.48 2.48 0 0 0 -.44-4 16.81 16.81 0 0 0 -4.87-1.67 34.24 34.24 0 0 1 -6-1.7c-2.43-1.08-4.08-2.77-4.13-5.64 0-3.07 1-5.55 3.8-7.08a13.09 13.09 0 0 1 5.39-1.48 18 18 0 0 1 8.22.9 8.1 8.1 0 0 1 5.32 6.9c.06.43 0 .6-.5.6-1.91 0-3.81 0-5.72 0-.38 0-.55-.1-.61-.5a3.31 3.31 0 0 0 -2.9-2.91 8.33 8.33 0 0 0 -4 .08 2.13 2.13 0 0 0 -1.74 2.83c.11.51-.12.46-.42.46h-3.09" fill="#204891"/><path d="m64 18.54v17.63c0 .66-.16.85-.8.83-1.78 0-3.56 0-5.35 0-.66 0-.85-.15-.85-.87 0-5.5 0-11 0-16.51 0-6.25 0-12.5 0-18.75 0-.71.19-.89.85-.87 1.81.05 3.62 0 5.43 0 .57 0 .72.15.72.75z" fill="#204891"/><path d="m37.61 30.58a8.11 8.11 0 0 0 2.88.65 5.44 5.44 0 0 0 5.59-3.84 15.5 15.5 0 0 0 -2-13.92c-1.74-2.47-4.36-3.53-7.32-3.67a3.9 3.9 0 0 1 -.76-.06 14 14 0 0 1 5.48-.74 13 13 0 0 1 8.58 3.49 12.78 12.78 0 0 1 3.72 7.58 16 16 0 0 1 -1.66 10.43 8.26 8.26 0 0 1 -12.76 2.41 7.57 7.57 0 0 1 -1.75-2.36" fill="#dc1312"/><g fill="#204891"><path d="m42.46 36.86c-7.67 1-14.26-3.07-15.29-11.14a15.72 15.72 0 0 1 1.57-9.72 7.44 7.44 0 0 1 6.65-4 8.13 8.13 0 0 1 6.84 2.46c.23.25.43.53.77.94a7.58 7.58 0 0 0 -3.88-.32c-2.65.52-4 2.36-4.54 4.81a17.76 17.76 0 0 0 1.42 11.82 8.87 8.87 0 0 0 5.86 4.85c.2 0 .5 0 .59.3"/><path d="m75.26 19.48a5.71 5.71 0 0 1 6.22-5c3.25.22 4.57 2.16 5.19 5.24.12.57-.3.39-.53.39-1.75 0-3.51 0-5.27 0s-3.35 0-5 0c-.54 0-.66-.15-.58-.69zm-2.71 5.27h20.6c.63 0 .87-.16.85-.85a24.85 24.85 0 0 0 -.31-3.75c-.91-5.35-4.29-10.53-11.12-11.09-4.81-.39-8.9 1.14-11.86 5.17-2.58 3.53-3.12 7.58-2.44 11.82a12.45 12.45 0 0 0 5.42 8.83 14.23 14.23 0 0 0 9.41 2 11.49 11.49 0 0 0 10.18-8.26c.13-.42.17-.64-.38-.64-1.75 0-3.51 0-5.26 0-.24 0-.44 0-.58.29a5.58 5.58 0 0 1 -4.59 3.08c-2.85.38-5.88-.49-6.81-3.95a1.72 1.72 0 0 0 -1.54-1.4 5.11 5.11 0 0 1 -2.47-1l.06-.22z"/></g></g></svg>